<svg xmlns="http://www.w3.org/2000/svg" xmlns:xlink="http://www.w3.org/1999/xlink" width="821" height="100" xmlns:v="https://vecta.io/nano"><style><![CDATA[.B{fill-opacity:0}.C{stroke:#000}.D{stroke-opacity:0}.E{fill:#2e335a}.F{fill:#78954d}.G{fill:#e36736}.H{fill:#a2adbb}.I{fill:#565244}.J{fill:#ed996e}.K{fill:#7d786a}.L{fill:#726d8a}]]></style><defs><path id="A" d="M657.56 10.43c-8.43 0-12.95 36.54-12.95 45.21h25.9c0-10.87-5.25-45.21-12.95-45.21"/><path id="B" d="M75.94 59.82c0 15.37-23.89 16.79-37.19 11.89v-12.4h23.37l-.26-15.11c9.39 1.63 14.08 6.84 14.08 15.62z"/><path id="C" d="M71.44 93.71c-.42.35-8.51-8.4-18.09-19.54-9.57-11.14-17-20.46-16.59-20.81.42-.35 8.51 8.39 18.09 19.53 9.57 11.14 17 20.46 16.59 20.82"/><path id="D" d="M9.19 81.25L0 93.79l12.98-11.38 4-14.18H9.85l-.66 13.02z"/><path id="E" d="M20.86 99.46l-7.9-31.75h7.13l.77 31.75z"/><path id="F" d="M14.06 26.8c-7.32 0-12.09 47.52-12.09 47.52h24.8S21.51 26.8 14.06 26.8"/><path id="G" d="M13.96 31.42c1.57-1.01 9.31 12.32 9.31 12.32s13.35 8.24 13 9.47c-.3 1.02-7.31-1.8-14.05-5.02-1.79-.85-3.21-2.35-4.12-4.08-3.12-5.95-5.44-11.85-4.14-12.69"/><path id="H" d="M50.54 92.59c0-3.5-2.84-6.35-6.35-6.35s-6.35 2.85-6.35 6.35a6.35 6.35 0 1 0 12.7 0"/><path id="I" d="M38.12 52.95c.31.77-.06 1.64-.83 1.94-.76.31-1.63-.06-1.94-.82-.3-.77.07-1.63.83-1.94.76-.31 1.63.06 1.94.82"/><path id="J" d="M48.3 93.02c0 2.14-1.73 3.87-3.87 3.87s-3.88-1.73-3.88-3.87 1.74-3.88 3.88-3.88 3.87 1.74 3.87 3.88"/><path id="K" d="M74.86 95.01a3.93 3.93 0 00-3.93-3.93c-2.18 0-3.94 1.76-3.94 3.93s1.76 3.93 3.94 3.93a3.93 3.93 0 003.93-3.93"/><path id="L" d="M73.47 95.27a2.4 2.4 0 01-4.8 0c0-1.32 1.08-2.4 2.4-2.4a2.4 2.4 0 012.4 2.4"/><path id="M" d="M15.87 27.73l-3.37-.15s-1.38-3.06-.35-5.34c1.33-2.95 4.16-1.64 4.65.47.46 1.98-.93 5.02-.93 5.02"/><path id="N" d="M16.17 21.45s-.63 6.12-4.54 8.16-6.13-.08-5.94-3.1c.29-4.87 6.97-8.62 10.48-5.06"/><path id="O" d="M178.78 35.93h-69.83c-7.61 0-13.83 6.23-13.83 13.83v49.7h97.49v-49.7c-4.15-9.22-8.76-13.83-13.83-13.83z"/><path id="P" d="M107.28 55.51c-1.59 0-2.9-1.3-2.9-2.9v-4.3c0-1.6 1.31-2.9 2.9-2.9 1.6 0 2.91 1.3 2.91 2.9v4.3c0 1.6-1.31 2.9-2.91 2.9"/><path id="Q" d="M119.76 55.51c-1.6 0-2.91-1.3-2.91-2.9v-4.3c0-1.6 1.31-2.9 2.91-2.9 1.59 0 2.9 1.3 2.9 2.9v4.3c0 1.6-1.31 2.9-2.9 2.9"/><path id="R" d="M132.02 55.51c-1.6 0-2.91-1.3-2.91-2.9v-4.3c0-1.6 1.31-2.9 2.91-2.9 1.59 0 2.9 1.3 2.9 2.9v4.3c0 1.6-1.31 2.9-2.9 2.9"/><path id="S" d="M144.44 55.51c-1.6 0-2.9-1.3-2.9-2.9v-4.3c0-1.6 1.3-2.9 2.9-2.9s2.9 1.3 2.9 2.9v4.3c0 1.6-1.3 2.9-2.9 2.9"/><path id="T" d="M156.7 55.51c-1.6 0-2.91-1.3-2.91-2.9v-4.3c0-1.6 1.31-2.9 2.91-2.9 1.59 0 2.9 1.3 2.9 2.9v4.3c0 1.6-1.31 2.9-2.9 2.9"/><path id="U" d="M169.19 55.51c-1.6 0-2.9-1.3-2.9-2.9v-4.3c0-1.6 1.3-2.9 2.9-2.9s2.9 1.3 2.9 2.9v4.3c0 1.6-1.3 2.9-2.9 2.9"/><path id="V" d="M181.45 55.51c-1.6 0-2.91-1.3-2.91-2.9v-4.3c0-1.6 1.31-2.9 2.91-2.9 1.59 0 2.9 1.3 2.9 2.9v4.3c0 1.6-1.31 2.9-2.9 2.9"/><path id="W" d="M107.28 75.11c-1.59 0-2.9-1.3-2.9-2.9v-4.3c0-1.6 1.31-2.9 2.9-2.9 1.6 0 2.91 1.3 2.91 2.9v4.3c0 1.6-1.31 2.9-2.91 2.9"/><path id="X" d="M119.76 75.11c-1.6 0-2.91-1.3-2.91-2.9v-4.3c0-1.6 1.31-2.9 2.91-2.9 1.59 0 2.9 1.3 2.9 2.9v4.3c0 1.6-1.31 2.9-2.9 2.9"/><path id="Y" d="M132.02 75.11c-1.6 0-2.91-1.3-2.91-2.9v-4.3c0-1.6 1.31-2.9 2.91-2.9 1.59 0 2.9 1.3 2.9 2.9v4.3c0 1.6-1.31 2.9-2.9 2.9"/><path id="Z" d="M144.44 75.11c-1.6 0-2.9-1.3-2.9-2.9v-4.3c0-1.6 1.3-2.9 2.9-2.9s2.9 1.3 2.9 2.9v4.3c0 1.6-1.3 2.9-2.9 2.9"/><path id="a" d="M156.7 75.11c-1.6 0-2.91-1.3-2.91-2.9v-4.3c0-1.6 1.31-2.9 2.91-2.9 1.59 0 2.9 1.3 2.9 2.9v4.3c0 1.6-1.31 2.9-2.9 2.9"/><path id="b" d="M169.19 75.11c-1.6 0-2.9-1.3-2.9-2.9v-4.3c0-1.6 1.3-2.9 2.9-2.9s2.9 1.3 2.9 2.9v4.3c0 1.6-1.3 2.9-2.9 2.9"/><path id="c" d="M181.45 75.11c-1.6 0-2.91-1.3-2.91-2.9v-4.3c0-1.6 1.31-2.9 2.91-2.9 1.59 0 2.9 1.3 2.9 2.9v4.3c0 1.6-1.31 2.9-2.9 2.9"/><path id="d" d="M107.28 94.64c-1.59 0-2.9-1.31-2.9-2.9v-4.3c0-1.6 1.31-2.91 2.9-2.91 1.6 0 2.91 1.31 2.91 2.91v4.3c0 1.59-1.31 2.9-2.91 2.9"/><path id="e" d="M119.76 94.64a2.92 2.92 0 0 1-2.91-2.9v-4.3a2.92 2.92 0 0 1 2.91-2.91 2.92 2.92 0 0 1 2.9 2.91v4.3c0 1.59-1.31 2.9-2.9 2.9"/><path id="f" d="M132.02 94.64a2.92 2.92 0 0 1-2.91-2.9v-4.3a2.92 2.92 0 0 1 2.91-2.91 2.92 2.92 0 0 1 2.9 2.91v4.3c0 1.59-1.31 2.9-2.9 2.9"/><path id="g" d="M144.44 94.64a2.91 2.91 0 0 1-2.9-2.9v-4.3c0-1.6 1.3-2.91 2.9-2.91s2.9 1.31 2.9 2.91v4.3a2.91 2.91 0 0 1-2.9 2.9"/><path id="h" d="M156.7 94.64a2.92 2.92 0 0 1-2.91-2.9v-4.3a2.92 2.92 0 0 1 2.91-2.91 2.92 2.92 0 0 1 2.9 2.91v4.3c0 1.59-1.31 2.9-2.9 2.9"/><path id="i" d="M169.19 94.64a2.91 2.91 0 0 1-2.9-2.9v-4.3c0-1.6 1.3-2.91 2.9-2.91s2.9 1.31 2.9 2.91v4.3a2.91 2.91 0 0 1-2.9 2.9"/><path id="j" d="M181.45 94.64a2.92 2.92 0 0 1-2.91-2.9v-4.3a2.92 2.92 0 0 1 2.91-2.91 2.92 2.92 0 0 1 2.9 2.91v4.3c0 1.59-1.31 2.9-2.9 2.9"/><path id="k" d="M539.25 64.32c0 3.04 2.47 5.5 5.51 5.5 3.04 0 5.5-2.46 5.5-5.5s-2.46-5.51-5.5-5.51c-3.67 1.65-5.51 3.48-5.51 5.51zm11.4-33.95l19.93 22.26v46.83H532.1V52.63l18.55-22.26z"/><path id="l" d="M553.83 64.32c0 3.04 2.47 5.5 5.51 5.5 3.04 0 5.5-2.46 5.5-5.5s-2.46-5.51-5.5-5.51c-3.67 1.65-5.51 3.48-5.51 5.51zm11.4-33.95l19.93 22.26v46.83h-38.48V52.63l18.55-22.26z"/><path id="m" d="M568.41 64.32c0 3.04 2.47 5.5 5.51 5.5 3.04 0 5.5-2.46 5.5-5.5s-2.46-5.51-5.5-5.51c-3.67 1.65-5.51 3.48-5.51 5.51zm11.4-33.95l19.93 22.26v46.83h-38.48V52.63l18.55-22.26z"/><path id="n" d="M582.99 64.32c0 3.04 2.47 5.5 5.51 5.5 3.04 0 5.5-2.46 5.5-5.5s-2.46-5.51-5.5-5.51c-3.67 1.65-5.51 3.48-5.51 5.51zm11.39-33.95l19.94 22.26v46.83h-38.48V52.63l18.54-22.26z"/><path id="o" d="M597.57 64.32c0 3.04 2.47 5.5 5.51 5.5 3.04 0 5.5-2.46 5.5-5.5s-2.46-5.51-5.5-5.51c-3.67 1.65-5.51 3.48-5.51 5.51zm11.39-33.95l19.94 22.26v46.83h-38.48V52.63l18.54-22.26z"/><path id="p" d="M678.13 13.89c0 1.01-.82 1.83-1.84 1.83a1.83 1.83 0 01-1.83-1.83 1.835 1.835 0 113.67 0"/><path id="q" d="M661.5 17.72l9.61 6.17 2.11-9.77 7.58 3.36-6.25 11.57c-.94 1.87-4.09 3.02-5.94 1.17-2.27-2.27-8.75-9.46-8.75-9.46"/><path id="r" d="M668.9 4.94v2.64l6.17 2.4 6.17 2.4V0l-6.17 2.47-6.17 2.47z"/><path id="s" d="M50.79 84.1c-2.96 4.23-5.81 7.36-6.37 6.97-.55-.39 1.4-4.14 4.36-8.38s5.82-7.36 6.37-6.97c.56.39-1.39 4.14-4.36 8.38"/><path id="t" d="M672.47 96.12l-14.91-39.74-14.3 38.89 1.35-39.63h25.9l1.96 40.48z"/><path id="u" d="M651.67 97.61c0 2.19-8.6 1.83-8.6 1.83l.2-4.37c5.6.22 8.4 1.07 8.4 2.54z"/><path id="v" d="M680.74 97.61c.34 2.19-8.31 1.83-8.31 1.83l-.47-4.37c5.63.22 8.55 1.07 8.78 2.54z"/><path id="w" d="M655.22 11.38h4.56s1.25-2.98 1.25-6.45c0-4.25-6.82-4.04-6.82-.08 0 3.26 1.01 6.53 1.01 6.53"/><path id="x" d="M646.73 43.4a1.84 1.84 0 1 1-3.68 0 1.84 1.84 0 1 1 3.68 0"/><path id="y" d="M656.54 17.66c.5-2.44-2.23-3.46-3.56-1.74-1.05 1.36-11.69 25.18-11.69 25.18l9.46 3.16 5.79-26.6"/><path id="z" d="M432.88 36.57c0 3.73 1.15 12.06 2.55 12.06 1.41 0 2.56-8.33 2.56-12.06 0-3.74-1.15-6.78-2.56-6.78-1.4 0-2.55 3.04-2.55 6.78"/><path id="AA" d="M424.84 36.57c0 3.73 1.14 12.06 2.55 12.06s2.55-8.33 2.55-12.06c0-3.74-1.14-6.78-2.55-6.78s-2.55 3.04-2.55 6.78"/><path id="AB" d="M402.47 18.22c0 1.47 3.12 2.65 6.96 2.65 3.85 0 6.97-1.18 6.97-2.65 0-1.46-3.12-2.65-6.97-2.65-3.84 0-6.96 1.19-6.96 2.65"/><path id="AC" d="M420.09 19a5.875 5.875 0 11-11.75 0c0-3.24 2.63-5.88 5.88-5.88 3.24 0 5.87 2.64 5.87 5.88"/><path id="AD" d="M415.92 25.82c0 4.71 7.73 8.53 17.25 8.53 9.53 0 17.25-3.82 17.25-8.53s-7.72-8.52-17.25-8.52c-9.52 0-17.25 3.81-17.25 8.52"/><path id="AE" d="M426.96 8.36c-3.46 5.98-3.26 12.57.44 14.7 3.7 2.14 9.5-.98 12.95-6.96 3.46-5.99 3.26-12.57-.44-14.7-3.7-2.14-9.5.98-12.95 6.96"/><path id="AF" d="M713.58 89.6c0 5.44-1.45 9.86-3.25 9.86-1.79 0-3.24-4.42-3.24-9.86 0-5.45 1.45-9.87 3.24-9.87 1.8 0 3.25 4.42 3.25 9.87"/><path id="AG" d="M743.31 89.6c0 5.44-1.45 9.86-3.24 9.86-1.8 0-3.25-4.42-3.25-9.86 0-5.45 1.45-9.87 3.25-9.87 1.79 0 3.24 4.42 3.24 9.87"/><path id="AH" d="M771.96 89.6c0 5.44-1.45 9.86-3.24 9.86-1.8 0-3.25-4.42-3.25-9.86 0-5.45 1.45-9.87 3.25-9.87 1.79 0 3.24 4.42 3.24 9.87"/><path id="AI" d="M800.61 89.6c0 5.44-1.45 9.86-3.24 9.86s-3.25-4.42-3.25-9.86c0-5.45 1.46-9.87 3.25-9.87s3.24 4.42 3.24 9.87"/><path id="AJ" d="M819.76 67.64c0 12.46-10.1 22.56-22.56 22.56s-22.56-10.1-22.56-22.56c0-12.45 10.1-22.55 22.56-22.55s22.56 10.1 22.56 22.55"/><path id="AK" d="M791.65 67.64c0 12.46-10.1 22.56-22.56 22.56s-22.56-10.1-22.56-22.56c0-12.45 10.1-22.55 22.56-22.55s22.56 10.1 22.56 22.55"/><path id="AL" d="M763.27 67.64c0 12.46-10.1 22.56-22.56 22.56s-22.56-10.1-22.56-22.56c0-12.45 10.1-22.55 22.56-22.55s22.56 10.1 22.56 22.55"/><path id="AM" d="M734.35 67.64c0 12.46-10.1 22.56-22.56 22.56s-22.56-10.1-22.56-22.56c0-12.45 10.1-22.55 22.56-22.55s22.56 10.1 22.56 22.55"/><path id="AN" d="M315.32 77.8c0-11.96-1.43-21.65-3.21-21.65-1.77 0-3.21 9.69-3.21 21.65 0 11.97 1.44 21.66 3.21 21.66 1.78 0 3.21-9.69 3.21-21.66"/><path id="AO" d="M326.34 77.8c0-11.96-1.44-21.65-3.22-21.65-1.77 0-3.21 9.69-3.21 21.65 0 11.97 1.44 21.66 3.21 21.66 1.78 0 3.22-9.69 3.22-21.66"/><path id="AP" d="M333 79.76c0-32.61-6.67-59.05-14.9-59.05s-14.9 26.44-14.9 59.05c0 2.97.07 5.85.18 8.7h29.44c.11-2.85.18-5.73.18-8.7"/><path id="AQ" d="M322.49 18.27a4.44 4.44 0 01-4.44 4.43c-2.45 0-4.43-1.99-4.43-4.43a4.434 4.434 0 118.87 0"/><path id="AR" d="M318.15 41.49c0 8.93-1.18 16.16-2.64 16.16-1.45 0-2.63-7.23-2.63-16.16 0-8.92 1.18-16.15 2.63-16.15 1.46 0 2.64 7.23 2.64 16.15"/><path id="AS" d="M319.25 3.93h-2.68l-2.45 6.29-2.45 6.29h12.62l-2.52-6.29-2.52-6.29z"/><path id="AT" d="M451.29 99.46h-7.75l14.1-36.21 14.11-36.22h15.46l14.5 36.22 14.5 36.21h-64.92z"/><path id="AU" d="M463.47 88.49c.08-.72.17-1.24.27-1.59a2.325 2.325 0 0 1 1.31-1.5c.33-.15.69-.2 1.08-.16.42.05.79.21 1.12.47.33.27.56.61.69 1.02.22-.53.54-.92.96-1.18.41-.25.88-.34 1.4-.28.41.04.8.18 1.16.41.37.24.65.53.84.89.2.35.29.78.29 1.26 0 .31-.06 1.04-.18 2.2l-.35 3.07-8.99-1.02.4-3.59z"/><path id="AV" d="M464.29 81.21l4.87.55 1.51.1c.38-.04.7-.19.95-.46.26-.27.42-.65.47-1.16.06-.52 0-.92-.18-1.2a1.23 1.23 0 0 0-.73-.56c-.3-.09-.8-.17-1.51-.25l-4.98-.56.2-1.82 4.73.53c1.08.12 1.84.26 2.27.41.44.14.79.37 1.07.67s.48.68.61 1.14.16 1.05.08 1.76c-.1.86-.27 1.5-.52 1.92-.24.42-.54.74-.89.97-.34.22-.7.35-1.05.39-.53.06-1.3.04-2.31-.08l-4.79-.54.2-1.81z"/><path id="AW" d="M465.31 72.13l4.87.55 1.51.1c.38-.04.7-.19.95-.45.26-.27.42-.66.47-1.17.06-.51 0-.91-.18-1.2-.18-.28-.42-.47-.72-.56-.31-.09-.81-.17-1.52-.25l-4.98-.56.2-1.82 4.73.54c1.08.12 1.84.25 2.27.4.44.15.79.37 1.07.67s.48.68.61 1.14c.14.46.16 1.05.08 1.76-.09.86-.27 1.5-.52 1.92-.24.43-.54.75-.89.97-.34.22-.69.35-1.05.4-.53.06-1.3.03-2.31-.08l-4.79-.54.2-1.82z"/><path id="AX" d="M466.13 64.85l.43-3.82c.11-.96.27-1.65.48-2.07s.53-.73.98-.95c.44-.21.93-.29 1.46-.23.67.07 1.21.34 1.6.78.4.45.61 1.07.64 1.87.27-.36.56-.66.86-.88.3-.23.83-.52 1.58-.87l1.88-.9-.25 2.17-2.1 1.09-1.43.81c-.2.15-.35.32-.44.5-.09.19-.16.49-.2.91-.01.02-.02.15-.05.37l3.76.42-.2 1.81-9-1.01z"/><path id="AY" d="M468.9 53.93l-.3 2.67-1.52-.17.8-7.15 1.52.17-.3 2.66 7.48.84-.21 1.82-7.47-.84z"/><path id="AZ" d="M481.03 88.28l.75-1.7c.96.38 1.64.91 2.04 1.6.41.68.56 1.5.45 2.47-.14 1.19-.66 2.13-1.56 2.8-.9.68-2.06.94-3.48.78-1.49-.17-2.61-.69-3.35-1.55-.75-.87-1.05-1.93-.9-3.19.12-1.1.55-1.96 1.27-2.57.43-.37 1.02-.61 1.76-.74l.23 1.85c-.48.05-.87.23-1.18.54s-.49.7-.54 1.19c-.08.66.1 1.23.53 1.7.44.47 1.19.76 2.26.88 1.14.13 1.97.02 2.5-.34.53-.35.83-.86.9-1.51a1.8 1.8 0 0 0-.32-1.3c-.27-.38-.72-.68-1.36-.91"/><path id="Aa" d="M484.82 84.32l-.21 1.93-8.61-4.52.22-1.92 9.4-2.59-.22 1.98"/><path id="Ab" d="M476.76 75.31l.29-2.72 6.31-1-5.97-2.25.28-2.73 9.01.94-.18 1.69-7.09-.74 6.9 2.53-.18 1.75-7.28 1.04 7.09.74-.17 1.69-9.01-.94z"/><path id="Ac" d="M477.91 64.77l.33-2.91c.12-1.11.25-1.82.38-2.15.19-.5.53-.9 1.02-1.19.49-.3 1.1-.41 1.81-.33.56.07 1.01.22 1.36.46.36.24.62.53.8.86.18.34.29.67.32.99.04.45.02 1.08-.08 1.9l-.13 1.19 3.39.38-.2 1.82-9-1.02z"/><path id="Ad" d="M479.06 54.59l4.87.54 1.51.11a1.48 1.48 0 0 0 .95-.46c.26-.27.41-.65.47-1.16.06-.52 0-.92-.19-1.2-.18-.29-.42-.48-.72-.56-.3-.09-.81-.18-1.52-.25l-4.97-.57.2-1.81 4.73.53c1.07.12 1.83.26 2.27.4.43.15.79.38 1.07.68.27.29.48.67.61 1.14.13.46.16 1.05.08 1.76-.1.86-.27 1.5-.52 1.92s-.54.74-.89.96a2.39 2.39 0 0 1-1.06.4c-.52.06-1.29.04-2.3-.08l-4.8-.54.21-1.81z"/><path id="Ae" d="M485.89 48.46l.03-1.79c.61-.04 1.07-.21 1.38-.5s.5-.72.57-1.27c.06-.59-.01-1.04-.23-1.36-.21-.33-.48-.51-.82-.55-.21-.02-.4.02-.56.13s-.32.31-.46.61c-.1.2-.29.67-.56 1.41-.35.95-.72 1.6-1.12 1.95-.56.5-1.19.7-1.9.62-.46-.05-.88-.23-1.25-.53a2.49 2.49 0 0 1-.78-1.23c-.15-.51-.19-1.11-.11-1.8.12-1.13.47-1.95 1.02-2.47.56-.51 1.26-.74 2.09-.67l-.13 1.82c-.47.03-.82.16-1.05.39s-.38.6-.43 1.12c-.06.52 0 .95.18 1.27.12.21.3.33.53.35.21.03.4-.04.58-.21.21-.2.48-.74.79-1.6.3-.86.59-1.49.86-1.89a2.67 2.67 0 0 1 1.03-.89c.41-.19.9-.26 1.47-.19a2.57 2.57 0 0 1 1.4.59c.42.33.71.78.87 1.33s.2 1.21.11 1.99c-.13 1.14-.49 1.98-1.09 2.53-.59.55-1.4.83-2.42.84"/><path id="Af" d="M290.02 33.71c.15-.34.27-.74.38-1.21.09-.37.15-.76.21-1.15.17-1.24.27-2.78.27-4.73 0-6.83-1.32-12.37-2.95-12.37-1.12 0-2.09 2.68-2.58 6.58-1.52-.84-3.23-1.37-5.09-1.37-1.85 0-3.56.52-5.07 1.36-.49-3.89-1.46-6.57-2.58-6.57-1.63 0-2.95 5.54-2.95 12.37 0 1.14.05 2.22.12 3.27 0 .02-.01.04-.01.06 0 .13.04.26.04.39.09 1.11.19 2.18.35 3.13-.15 0-.3-.02-.45-.02h-40.26c-2.66 0-5.16.69-7.34 1.89-.09-3.83-2.01-9.64-5.42-15.58-5.24-9.15-11.99-15.12-15.08-13.35-3.08 1.77-1.33 10.61 3.91 19.75 3.84 6.69 8.47 11.67 11.9 13.18a15.124 15.124 0 00-3 6.52c-1.11 4.1-1.81 9.92-1.81 16.38 0 12.43 2.57 37.22 5.74 37.22 3.1 0 5.63-23.73 5.73-36.39 1.43.54 2.95.87 4.54.96.22 12.85 2.7 35.43 5.72 35.43 3.03 0 5.5-22.53 5.72-35.39h18.52c.23 12.86 2.7 35.39 5.72 35.39 3.03 0 5.5-22.55 5.72-35.41 1.8-.03 3.52-.39 5.12-1 .11 12.65 2.63 36.41 5.74 36.41 3.17 0 5.74-24.79 5.74-37.22 0-7.14-.86-13.49-2.18-17.61-.45-1.59-1.13-3.08-2.04-4.41 3.51-.73 6.36-3.23 7.62-6.51"/><path id="Ag" d="M786.86 6.55c-5.04 0-9.48 1.62-12.22 4.1C771.73 4.58 763.07.18 752.84.18c-5.91 0-11.29 1.48-15.34 3.9-2.23-1.66-5.46-2.73-9.1-2.73-6.72 0-12.16 3.57-12.16 7.97 0 .12.04.24.05.36a12.83 12.83 0 0 0-2.96-.36c-4.82 0-8.73 2.56-8.73 5.72 0 3.1 3.79 5.62 8.5 5.7-.01.17-.04.35-.04.53 0 5.26 6.52 9.53 14.55 9.53 4.69 0 8.85-1.46 11.51-3.72 3.82 1.89 8.56 3.03 13.72 3.03 9.3 0 17.29-3.65 20.86-8.88 2.58 3.02 7.5 5.06 13.16 5.06 8.32 0 15.07-4.42 15.07-9.87s-6.75-9.87-15.07-9.87"/><path id="Ah" d="M374.68 80.89c0-10.25-2.16-18.57-4.83-18.57-2.66 0-4.82 8.32-4.82 18.57 0 10.26 2.16 18.57 4.82 18.57 2.67 0 4.83-8.31 4.83-18.57"/><path id="Ai" d="M394.85 47.85a25 25 0 1 1-50 0 25 25 0 1 1 50 0"/><path id="Aj" d="M423.01 80.53c0-16.52-6.16-29.9-13.76-29.9s-13.77 13.38-13.77 29.9c0 7.18 1.17 13.77 3.12 18.93h21.3c1.94-5.16 3.11-11.75 3.11-18.93"/></defs><use xlink:href="#B" class="F"/><use xlink:href="#B" class="B C D"/><use xlink:href="#s" class="H"/><use xlink:href="#s" class="B C D"/><use xlink:href="#C" class="H"/><use xlink:href="#C" class="B C D"/><use xlink:href="#D" class="G"/><use xlink:href="#D" class="B C D"/><use xlink:href="#E" class="G"/><use xlink:href="#E" class="B C D"/><use xlink:href="#F" class="H"/><use xlink:href="#F" class="B C D"/><use xlink:href="#G" class="E"/><use xlink:href="#G" class="B C D"/><use xlink:href="#H" class="E"/><use xlink:href="#H" class="B C D"/><use xlink:href="#I" class="J"/><use xlink:href="#I" class="B C D"/><use xlink:href="#J" class="F"/><use xlink:href="#J" class="B C D"/><use xlink:href="#K" class="E"/><use xlink:href="#K" class="B C D"/><use xlink:href="#L" class="F"/><use xlink:href="#L" class="B C D"/><use xlink:href="#M" class="J"/><use xlink:href="#M" class="B C D"/><use xlink:href="#N" class="G"/><use xlink:href="#N" class="B C D"/><use fill="#5c748c" xlink:href="#O"/><use xlink:href="#O" class="B C D"/><use xlink:href="#P" class="E"/><use xlink:href="#P" class="B C D"/><use xlink:href="#Q" class="E"/><use xlink:href="#Q" class="B C D"/><use xlink:href="#R" class="E"/><use xlink:href="#R" class="B C D"/><use xlink:href="#S" class="E"/><use xlink:href="#S" class="B C D"/><use xlink:href="#T" class="E"/><use xlink:href="#T" class="B C D"/><use xlink:href="#U" class="E"/><use xlink:href="#U" class="B C D"/><use xlink:href="#V" class="E"/><use xlink:href="#V" class="B C D"/><use xlink:href="#W" class="E"/><use xlink:href="#W" class="B C D"/><use xlink:href="#X" class="E"/><use xlink:href="#X" class="B C D"/><use xlink:href="#Y" class="E"/><use xlink:href="#Y" class="B C D"/><use xlink:href="#Z" class="E"/><use xlink:href="#Z" class="B C D"/><use xlink:href="#a" class="E"/><use xlink:href="#a" class="B C D"/><use xlink:href="#b" class="E"/><use xlink:href="#b" class="B C D"/><use xlink:href="#c" class="E"/><use xlink:href="#c" class="B C D"/><use xlink:href="#d" class="E"/><use xlink:href="#d" class="B C D"/><use xlink:href="#e" class="E"/><use xlink:href="#e" class="B C D"/><use xlink:href="#f" class="E"/><use xlink:href="#f" class="B C D"/><use xlink:href="#g" class="E"/><use xlink:href="#g" class="B C D"/><use xlink:href="#h" class="E"/><use xlink:href="#h" class="B C D"/><use xlink:href="#i" class="E"/><use xlink:href="#i" class="B C D"/><use xlink:href="#j" class="E"/><use xlink:href="#j" class="B C D"/><use xlink:href="#k" class="H"/><use xlink:href="#k" class="B C D"/><use xlink:href="#l" class="G"/><use xlink:href="#l" class="B C D"/><use xlink:href="#m" class="F"/><use xlink:href="#m" class="B C D"/><use fill="#125155" xlink:href="#n"/><use xlink:href="#n" class="B C D"/><use fill="#5c748c" xlink:href="#o"/><use xlink:href="#o" class="B C D"/><use xlink:href="#p" class="K"/><use xlink:href="#p" class="B C D"/><use xlink:href="#q" class="L"/><use xlink:href="#q" class="B C D"/><use xlink:href="#r" class="G"/><use xlink:href="#r" class="B C D"/><use xlink:href="#A" class="E"/><use xlink:href="#A" class="B C D"/><use xlink:href="#t" class="I"/><use xlink:href="#t" class="B C D"/><use xlink:href="#u" class="E"/><use xlink:href="#u" class="B C D"/><use xlink:href="#v" class="E"/><use xlink:href="#v" class="B C D"/><use xlink:href="#w" class="K"/><use xlink:href="#w" class="B C D"/><use xlink:href="#x" class="K"/><use xlink:href="#x" class="B C D"/><use xlink:href="#y" class="L"/><use xlink:href="#y" class="B C D"/><use xlink:href="#z" class="G"/><use xlink:href="#z" class="B C D"/><use xlink:href="#AA" class="G"/><use xlink:href="#AA" class="B C D"/><use xlink:href="#AB" class="G"/><use xlink:href="#AB" class="B C D"/><use xlink:href="#AC" class="E"/><use xlink:href="#AC" class="B C D"/><use xlink:href="#AD" class="E"/><use xlink:href="#AD" class="B C D"/><use xlink:href="#AE" class="E"/><use xlink:href="#AE" class="B C D"/><use xlink:href="#AF" class="E"/><use xlink:href="#AF" class="B C D"/><use xlink:href="#AG" class="E"/><use xlink:href="#AG" class="B C D"/><use xlink:href="#AH" class="E"/><use xlink:href="#AH" class="B C D"/><use xlink:href="#AI" class="E"/><use xlink:href="#AI" class="B C D"/><use xlink:href="#AJ" class="F"/><use xlink:href="#AJ" class="B C D"/><use xlink:href="#AK" class="F"/><use xlink:href="#AK" class="B C D"/><use xlink:href="#AL" class="F"/><use xlink:href="#AL" class="B C D"/><use xlink:href="#AM" class="F"/><use xlink:href="#AM" class="B C D"/><use xlink:href="#AN" class="I"/><use xlink:href="#AN" class="B C D"/><use xlink:href="#AO" class="I"/><use xlink:href="#AO" class="B C D"/><use xlink:href="#AP" class="L"/><use xlink:href="#AP" class="B C D"/><use xlink:href="#AQ" class="J"/><use xlink:href="#AQ" class="B C D"/><use xlink:href="#AR" class="E"/><use xlink:href="#AR" class="B C D"/><use xlink:href="#AS" class="G"/><use xlink:href="#AS" class="B C D"/><use xlink:href="#AT" class="G"/><use xlink:href="#AT" class="B C D"/><use xlink:href="#AU" class="E"/><use xlink:href="#AU" class="B C D"/><use xlink:href="#AV" class="E"/><use xlink:href="#AV" class="B C D"/><use xlink:href="#AW" class="E"/><use xlink:href="#AW" class="B C D"/><use xlink:href="#AX" class="E"/><use xlink:href="#AX" class="B C D"/><use xlink:href="#AY" class="E"/><use xlink:href="#AY" class="B C D"/><use xlink:href="#AZ" class="E"/><use xlink:href="#AZ" class="B C D"/><use xlink:href="#Aa" class="E"/><use xlink:href="#Aa" class="B C D"/><use xlink:href="#Ab" class="E"/><use xlink:href="#Ab" class="B C D"/><use xlink:href="#Ac" class="E"/><use xlink:href="#Ac" class="B C D"/><use xlink:href="#Ad" class="E"/><use xlink:href="#Ad" class="B C D"/><use xlink:href="#Ae" class="E"/><use xlink:href="#Ae" class="B C D"/><use xlink:href="#Af" class="I"/><use xlink:href="#Af" class="B C D"/><use fill="#aba599" xlink:href="#Ag"/><use xlink:href="#Ag" class="B C D"/><use xlink:href="#Ah" class="E"/><use xlink:href="#Ah" class="B C D"/><use xlink:href="#Ai" class="F"/><use xlink:href="#Ai" class="B C D"/><use xlink:href="#Aj" class="F"/><use xlink:href="#Aj" class="B C D"/></svg>